<?xml version="1.0" standalone="no"?>
<!DOCTYPE svg PUBLIC "-//W3C//DTD SVG 20010904//EN"
 "http://www.w3.org/TR/2001/REC-SVG-20010904/DTD/svg10.dtd">
<svg version="1.0" xmlns="http://www.w3.org/2000/svg"
 width="114.000000pt" height="45.000000pt" viewBox="0 0 114.000000 45.000000"
 preserveAspectRatio="xMidYMid meet">

<g transform="translate(0.000000,45.000000) scale(0.100000,-0.100000)"
fill="#000000" stroke="none">
<path d="M435 290 c-3 -6 1 -13 10 -16 19 -8 30 0 20 15 -8 14 -22 14 -30 1z"/>
<path d="M830 241 c0 -66 15 -91 55 -91 53 0 75 67 31 95 -13 8 -31 13 -40 9
-12 -5 -16 0 -16 20 0 16 -6 26 -15 26 -12 0 -15 -13 -15 -59z m78 -34 c4 -20
-25 -34 -40 -19 -15 15 -1 44 19 40 10 -2 19 -11 21 -21z"/>
<path d="M957 294 c-13 -13 -7 -24 14 -24 11 0 19 5 17 12 -5 14 -22 21 -31
12z"/>
<path d="M329 276 c-2 -2 -2 -32 -1 -65 3 -44 8 -61 18 -61 8 0 14 10 14 25 0
20 5 25 25 25 16 0 25 6 25 15 0 9 -9 15 -25 15 -14 0 -25 5 -25 10 0 6 14 10
30 10 20 0 30 5 30 15 0 11 -11 15 -43 15 -24 0 -46 -2 -48 -4z"/>
<path d="M490 225 c0 -43 4 -56 19 -65 11 -5 24 -10 30 -10 17 0 13 27 -4 34
-8 3 -15 12 -15 21 0 8 7 15 15 15 8 0 15 7 15 15 0 8 -7 15 -15 15 -8 0 -15
7 -15 15 0 8 -7 15 -15 15 -12 0 -15 -13 -15 -55z"/>
<path d="M570 215 c0 -51 3 -65 15 -65 9 0 15 9 15 25 0 20 5 25 25 25 20 0
25 -5 25 -25 0 -16 6 -25 15 -25 12 0 15 14 15 65 0 51 -3 65 -15 65 -9 0 -15
-9 -15 -25 0 -20 -5 -25 -25 -25 -20 0 -25 5 -25 25 0 16 -6 25 -15 25 -12 0
-15 -14 -15 -65z"/>
<path d="M1010 225 c0 -43 4 -56 19 -65 11 -5 24 -10 30 -10 17 0 13 27 -4 34
-8 3 -15 12 -15 21 0 8 7 15 15 15 8 0 15 7 15 15 0 8 -7 15 -15 15 -8 0 -15
7 -15 15 0 8 -7 15 -15 15 -12 0 -15 -13 -15 -55z"/>
<path d="M722 244 c-25 -17 -29 -56 -7 -77 9 -9 32 -15 58 -15 l44 1 -8 40
c-7 39 -30 67 -54 67 -6 0 -21 -7 -33 -16z m48 -29 c13 -16 6 -35 -15 -35 -18
0 -28 17 -21 35 7 19 20 19 36 0z"/>
<path d="M438 200 c3 -35 8 -50 18 -50 10 0 14 14 14 50 0 41 -3 50 -17 50
-15 0 -17 -8 -15 -50z"/>
<path d="M960 200 c0 -38 4 -50 15 -50 11 0 15 12 15 50 0 38 -4 50 -15 50
-11 0 -15 -12 -15 -50z"/>
</g>
</svg>
